<svg width="159" height="210" viewBox="0 0 159 210" fill="none" xmlns="http://www.w3.org/2000/svg">
<path d="M49.8869 168.173C43.729 166.987 38.3864 164.178 33.2726 160.928C29.7931 158.716 26.4602 156.279 22.8735 153.813C23.2998 154.869 23.6264 155.843 24.074 156.759C25.9409 160.58 28.0966 164.24 31.1132 167.283C34.8524 171.055 39.457 173.525 44.3752 175.466C48.0235 176.905 51.8244 177.808 55.701 178.232C62.8836 179.019 69.9194 178.399 76.3425 174.8C82.2473 171.492 85.3394 166.405 84.808 159.597C84.4909 155.534 82.8941 151.786 80.6637 148.36C77.6795 143.775 74.0129 139.765 69.6249 136.48C63.7656 132.092 57.7482 127.913 51.8828 123.534C47.8851 120.549 43.9335 117.487 40.1444 114.25C37.1451 111.687 34.2944 108.923 31.6098 106.037C27.5371 101.658 24.0231 96.8409 21.9257 91.2022C21.0844 88.9402 20.5551 86.5199 20.2208 84.1255C19.1697 76.5975 21.8267 70.0042 25.8973 63.8762C28.0851 60.5826 30.4932 57.4319 32.8307 54.2374C33.0659 53.9159 33.7349 53.4751 33.8048 53.5362C34.2408 53.9173 34.7153 54.3782 34.8828 54.9046C35.0647 55.4762 34.9479 56.1487 34.9239 56.7758C34.718 62.147 36.2318 67.116 38.5228 71.902C41.047 77.1752 44.4489 81.8227 48.4653 86.0946C53.4686 91.4161 59.0943 95.9823 65.1305 100.06C71.3262 104.246 77.6481 108.248 83.8602 112.41C90.0051 116.527 96.1324 120.674 102.163 124.952C104.578 126.665 106.702 128.777 108.981 130.681C113.309 134.297 116.941 138.539 120.094 143.159C123.249 147.783 125.563 152.832 126.428 158.385C126.899 161.411 127.156 164.502 127.134 167.561C127.1 172.329 125.937 176.916 124 181.286C121.97 185.864 119.271 190.004 115.827 193.688C113.154 196.547 110.166 198.982 106.919 201.171C101.739 204.665 96.0583 206.958 89.9941 208.325C87.6036 208.863 85.1388 209.167 82.6907 209.343C79.663 209.56 76.5901 209.82 73.5862 209.54C69.4799 209.157 65.3769 208.473 61.3514 207.572C56.3469 206.452 51.6286 204.451 47.0924 202.075C42.2428 199.534 37.5943 196.674 33.4091 193.138C30.7503 190.891 28.0066 188.715 25.5604 186.254C19.9615 180.621 15.161 174.358 11.1545 167.503C7.90917 161.95 5.26719 156.133 3.34162 150.015C1.91166 145.471 0.736784 140.851 0.456454 136.073C0.23486 132.295 -0.119178 128.5 0.0397836 124.732C0.24848 119.784 1.17824 114.912 2.49189 110.108C3.95556 104.756 6.26843 99.7868 8.96998 94.8562C10.7315 96.7371 12.4688 98.5707 14.1805 100.428C15.2394 101.576 16.2102 102.808 17.3052 103.92C21.9732 108.663 26.5309 113.525 31.4049 118.052C35.4285 121.789 39.8364 125.121 44.0807 128.624C46.4585 130.587 48.9101 132.467 51.2178 134.507C53.496 136.521 55.737 138.596 57.8128 140.811C61.787 145.052 64.6914 149.91 65.8115 155.678C66.6806 160.153 64.8466 164.913 61.1872 167.152C59.9683 167.898 58.448 168.451 57.0341 168.528C54.6991 168.655 52.3386 168.325 49.8869 168.173Z" fill="url(#paint0_linear_2_12)"/>
<path d="M81.569 3.18216C82.4107 5.15875 83.1764 7.06754 84.0094 8.94664C86.4126 14.3677 89.0891 19.6488 92.6253 24.4354C94.5962 27.1033 96.6393 29.7315 98.8253 32.2245C101.739 35.5477 104.822 38.7235 107.836 41.9596C110.016 44.3007 112.208 46.6312 114.383 48.9766C118.196 53.0874 122.081 57.1351 125.789 61.3378C131.504 67.8146 136.985 74.4884 141.58 81.8256C144.762 86.9069 147.496 92.2102 149.817 97.7557C152.509 104.186 154.446 110.83 156.109 117.564C156.927 120.878 157.458 124.263 158.12 127.615C158.195 127.99 158.281 128.363 158.362 128.736C158.263 128.799 158.165 128.862 158.067 128.925C157.287 127.735 156.438 126.583 155.741 125.347C152.858 120.234 150.641 114.746 147.141 109.983C145.092 107.194 143.033 104.396 140.759 101.793C138.364 99.0499 135.868 96.3494 133.126 93.9619C128.914 90.2944 124.567 86.7587 120.073 83.4411C113.177 78.3497 106.029 73.5978 99.1393 68.4983C94.0108 64.7023 89.0234 60.6788 84.7805 55.8767C81.8552 52.5658 79.1554 49.0573 76.3402 45.6492C74.9245 43.9353 73.4761 42.2483 71.7846 40.6744C72.1507 42.273 72.4839 43.8799 72.8889 45.4687C74.3525 51.2092 76.6058 56.6036 80.186 61.3703C81.7574 63.4625 83.3647 65.5499 85.16 67.4474C87.538 69.9607 90.0016 72.4199 92.638 74.6568C95.7627 77.3082 99.0773 79.7426 102.369 82.1915C107.344 85.8925 112.44 89.4352 117.351 93.2171C120.706 95.8007 123.909 98.5964 127.044 101.445C130.184 104.299 133.283 107.218 136.172 110.319C141.118 115.628 145.44 121.41 148.483 128.05C150.334 132.088 151.692 136.26 152.433 140.669C153.044 144.3 153.03 147.94 152.784 151.538C152.455 156.357 150.992 160.985 149.109 165.439C147.272 169.786 145.067 173.949 142.415 177.865C139.799 181.725 137.018 185.452 133.661 188.72C131.857 190.476 130.091 192.271 128.308 194.049C128.181 193.964 128.055 193.879 127.929 193.793C128.174 193.285 128.384 192.756 128.669 192.271C131.724 187.074 134.922 181.955 137.809 176.667C139.694 173.215 140.661 169.399 141.174 165.465C141.932 159.65 141.119 154.041 138.935 148.676C137.274 144.597 135.045 140.777 132.101 137.442C129.809 134.844 127.581 132.169 125.084 129.778C121.188 126.049 117.124 122.491 113.062 118.94C110.321 116.543 107.511 114.217 104.64 111.977C99.9624 108.328 95.2094 104.776 90.4885 101.184C85.4554 97.3531 80.3781 93.5787 75.4055 89.6717C72.2309 87.1775 69.1406 84.565 66.1423 81.8623C63.2583 79.2626 60.405 76.603 57.7843 73.7454C54.2219 69.8611 50.9707 65.7224 48.4977 61.0109C46.6935 57.5737 45.3803 53.9818 44.8659 50.1668C44.1202 44.6368 45.0283 39.295 47.1875 34.1403C49.3532 28.97 52.4296 24.3919 56.1872 20.2735C58.7503 17.4644 61.3586 14.6745 64.1646 12.1135C67.2268 9.31864 70.5342 6.79016 73.7471 4.16057C75.3211 2.87235 76.9009 1.5891 78.5212 0.36015C79.388 -0.297344 80.1273 -0.0320222 80.5745 0.971883C80.8907 1.68164 81.2073 2.39117 81.569 3.18216Z" fill="url(#paint1_linear_2_12)"/>
<defs>
<linearGradient id="paint0_linear_2_12" x1="61.1221" y1="95.8507" x2="63.5677" y2="209.662" gradientUnits="userSpaceOnUse">
<stop stop-color="#0578BD"/>
<stop offset="1" stop-color="#0A5EA8"/>
</linearGradient>
<linearGradient id="paint1_linear_2_12" x1="101.485" y1="0" x2="101.485" y2="194.049" gradientUnits="userSpaceOnUse">
<stop stop-color="#0093D4"/>
<stop offset="1" stop-color="#0A5EA8"/>
</linearGradient>
</defs>
</svg>
